<svg width="32" height="32" viewBox="0 0 32 32" fill="none" xmlns="http://www.w3.org/2000/svg">
<path d="M26.6667 10.6667L16 17.3333L5.33332 10.6667V8L16 14.6667L26.6667 8M26.6667 5.33334H5.33332C3.85332 5.33334 2.66666 6.52 2.66666 8V24C2.66666 24.7072 2.94761 25.3855 3.4477 25.8856C3.9478 26.3857 4.62608 26.6667 5.33332 26.6667H26.6667C27.3739 26.6667 28.0522 26.3857 28.5523 25.8856C29.0524 25.3855 29.3333 24.7072 29.3333 24V8C29.3333 7.29276 29.0524 6.61448 28.5523 6.11438C28.0522 5.61429 27.3739 5.33334 26.6667 5.33334Z" fill="#697A89" fill-opacity="0.48"/>
</svg>
