<svg width="93" height="93" viewBox="0 0 93 93" fill="none" xmlns="http://www.w3.org/2000/svg">
<path d="M85.25 13.2137L84.785 8.33124L80.135 9.88124C72.1657 12.6501 63.6556 13.4998 55.2962 12.3612C46.5122 10.9981 37.5213 12.2094 29.4112 15.8487C25.1119 17.6795 21.3387 20.5565 18.4352 24.218C15.5318 27.8795 13.5903 32.209 12.7875 36.8125C11.7466 42.7594 12.2673 48.8747 14.2987 54.56C15.6068 51.6076 17.1353 48.7579 18.8712 46.035C22.809 40.2412 28.2653 35.6429 34.6425 32.7437C40.7861 29.9387 47.5012 28.6116 54.25 28.8687C47.8253 29.851 41.6756 32.1605 36.1925 35.65C33.5477 37.3118 31.1257 39.3041 28.985 41.5787C26.9377 43.8523 25.1326 46.3327 23.5987 48.98C20.7178 54.5135 18.6679 60.4414 17.515 66.5725C16.2723 72.7234 15.5978 78.9756 15.5 85.25H23.25C23.6142 79.6228 24.3783 74.0287 25.5362 68.51C30.9125 71.4131 36.9417 72.8938 43.0512 72.8112C48.7493 72.8073 54.3888 71.661 59.6362 69.44C89.125 56.8462 85.25 14.9575 85.25 13.2137Z" fill="#697A89"/>
</svg>
