<svg width="32" height="32" viewBox="0 0 32 32" fill="none" xmlns="http://www.w3.org/2000/svg">
<path d="M8.00001 29.3333C7.26668 29.3333 6.63912 29.0724 6.11734 28.5507C5.59468 28.028 5.33334 27.4 5.33334 26.6667V13.3333C5.33334 12.6 5.59468 11.972 6.11734 11.4493C6.63912 10.9276 7.26668 10.6667 8.00001 10.6667H9.33334V8C9.33334 6.15555 9.98357 4.58311 11.284 3.28267C12.5836 1.98311 14.1556 1.33333 16 1.33333C17.8445 1.33333 19.4169 1.98311 20.7173 3.28267C22.0169 4.58311 22.6667 6.15555 22.6667 8V10.6667H24C24.7333 10.6667 25.3613 10.9276 25.884 11.4493C26.4058 11.972 26.6667 12.6 26.6667 13.3333V26.6667C26.6667 27.4 26.4058 28.028 25.884 28.5507C25.3613 29.0724 24.7333 29.3333 24 29.3333H8.00001ZM16 22.6667C16.7333 22.6667 17.3613 22.4058 17.884 21.884C18.4058 21.3613 18.6667 20.7333 18.6667 20C18.6667 19.2667 18.4058 18.6387 17.884 18.116C17.3613 17.5942 16.7333 17.3333 16 17.3333C15.2667 17.3333 14.6391 17.5942 14.1173 18.116C13.5947 18.6387 13.3333 19.2667 13.3333 20C13.3333 20.7333 13.5947 21.3613 14.1173 21.884C14.6391 22.4058 15.2667 22.6667 16 22.6667ZM12 10.6667H20V8C20 6.88889 19.6111 5.94444 18.8333 5.16667C18.0556 4.38889 17.1111 4 16 4C14.8889 4 13.9445 4.38889 13.1667 5.16667C12.3889 5.94444 12 6.88889 12 8V10.6667Z" fill="#697A89" fill-opacity="0.48"/>
</svg>
